<?xml version="1.0" encoding="UTF-8"?>
<svg width="98px" height="104px" viewBox="0 0 98 104" version="1.1" xmlns="http://www.w3.org/2000/svg" xmlns:xlink="http://www.w3.org/1999/xlink">
    <!-- Generator: Sketch 48.2 (47327) - http://www.bohemiancoding.com/sketch -->
    <title>Shape Copy</title>
    <desc>Created with Sketch.</desc>
    <defs></defs>
    <g id="Desktop-HD-Copy-3" stroke="none" stroke-width="1" fill="none" fill-rule="evenodd" transform="translate(-706.000000, -390.000000)">
        <path d="M801.476346,391.501942 C800.642794,390.947438 799.586484,390.846837 798.664307,391.227684 L754.904056,409.428088 L711.143804,391.227684 C710.222826,390.846837 709.166515,390.948636 708.331766,391.501942 C707.499412,392.057643 707,392.991795 707,393.993015 L707,471.326466 C707,472.536073 707.726962,473.627115 708.844352,474.091796 L753.75433,492.770055 C753.819002,492.796403 753.886069,492.807181 753.950741,492.829936 C754.014216,492.851494 754.075295,492.869458 754.138769,492.887423 C754.390272,492.95449 754.646565,493 754.904056,493 C755.161547,493 755.41784,492.95449 755.669342,492.887423 C755.734014,492.869458 755.793896,492.851494 755.85737,492.829936 C755.922043,492.807181 755.98911,492.7976 756.053782,492.770055 L800.96376,474.091796 C802.08115,473.627115 802.808112,472.536073 802.808112,471.326466 L802.808112,393.993015 C802.808112,392.991795 802.3087,392.057643 801.476346,391.501942 Z M712.988157,398.480539 L751.909978,414.668922 L751.909978,485.517199 L712.988157,469.328817 L712.988157,398.480539 Z M796.819955,469.328817 L757.898134,485.517199 L757.898134,414.668922 L796.819955,398.480539 L796.819955,469.328817 Z" id="Shape-Copy" stroke="#FF6600" fill="#FF6600" fill-rule="nonzero"></path>
    </g>
</svg>