<?xml version="1.0" encoding="UTF-8"?>
<svg width="136px" height="137px" viewBox="0 0 136 137" version="1.1" xmlns="http://www.w3.org/2000/svg" xmlns:xlink="http://www.w3.org/1999/xlink">
    <!-- Generator: Sketch 48.2 (47327) - http://www.bohemiancoding.com/sketch -->
    <title>Group 6</title>
    <desc>Created with Sketch.</desc>
    <defs></defs>
    <g id="Page-1" stroke="none" stroke-width="1" fill="none" fill-rule="evenodd">
        <g id="Group-6">
            <rect id="Rectangle-2" fill="#FFFFFF" x="0" y="0" width="136" height="136"></rect>
            <path d="M49.1021756,126.322149 C48.1346484,126.847541 46.9037267,126.498835 46.3474268,125.53391 L42.2798751,118.478579 C41.7259966,117.517855 42.0394455,116.271857 42.9761016,115.697943 L45.7959374,113.970156 C46.7343312,113.395178 47.4945655,112.031707 47.4939744,110.936194 L47.4911692,105.737564 C47.4905753,104.636931 46.727617,103.277503 45.7909357,102.703573 L42.9710237,100.97574 C42.0326046,100.400746 41.7189286,99.1602858 42.2758227,98.1957168 L46.3477196,91.1429844 C46.9021899,90.1826138 48.1375131,89.8308092 49.102891,90.3550345 L52.0091946,91.9332332 C52.9763634,92.4584311 54.5377864,92.435928 55.4868245,91.8886832 L59.9903721,89.291798 C60.9438452,88.7419958 61.7401467,87.4023982 61.7688424,86.3042734 L61.8552317,82.9983306 C61.8839806,81.8981686 62.8014209,81.0057552 63.9152198,81.0050628 L72.0590917,81.0000004 C73.1680428,80.999311 74.0903934,81.8930024 74.1191005,82.9915636 L74.2055241,86.2988203 C74.2342845,87.3994196 75.0348903,88.7404008 75.9838224,89.288267 L80.4868673,91.8881012 C81.440234,92.4385277 82.9992178,92.4578489 83.9649532,91.9334293 L86.8723334,90.354646 C87.8398606,89.8292536 89.0707823,90.17796 89.6270822,91.1428844 L93.6946339,98.1982155 C94.2485124,99.15894 93.9350635,100.404938 92.9984074,100.978851 L90.1785716,102.706638 C89.2401778,103.281617 88.4799435,104.645087 88.4805346,105.740601 L88.4833398,110.93923 C88.4839337,112.039863 89.246892,113.399292 90.1835733,113.973221 L93.0034853,115.701054 C93.9419044,116.276048 94.2555804,117.516509 93.6986863,118.481078 L89.6267894,125.53381 C89.0723191,126.494181 87.8369959,126.845985 86.871618,126.32176 L83.9653144,124.743561 C82.9981456,124.218363 81.4367226,124.240867 80.4876845,124.788111 L75.9841369,127.384997 C75.0306638,127.934799 74.2343623,129.274396 74.2056666,130.372521 L74.1192773,133.678464 C74.0905284,134.778626 73.1730881,135.671039 72.0592892,135.671732 L63.9154173,135.676794 C62.8064662,135.677484 61.8841156,134.783792 61.8554085,133.685231 L61.7689849,130.377974 C61.7402245,129.277375 60.9396187,127.936394 59.9906866,127.388528 L55.4876417,124.788693 C54.534275,124.238267 52.9752912,124.218946 52.0095558,124.743365 L49.1021756,126.322149 Z M61.9872545,118.730702 C67.726766,122.044411 75.0658508,120.077909 78.3795593,114.338397 C81.6932678,108.598886 79.726766,101.259801 73.9872545,97.9460925 C68.247743,94.632384 60.9086582,96.5988858 57.5949497,102.338397 C54.2812412,108.077909 56.247743,115.416994 61.9872545,118.730702 Z" id="Shape" stroke="#FF6600" stroke-width="1.5"></path>
        </g>
    </g>
</svg>