<?xml version="1.0" encoding="UTF-8"?>
<svg width="136px" height="137px" viewBox="0 0 136 137" version="1.1" xmlns="http://www.w3.org/2000/svg" xmlns:xlink="http://www.w3.org/1999/xlink">
    <!-- Generator: Sketch 48.2 (47327) - http://www.bohemiancoding.com/sketch -->
    <title>Group 3</title>
    <desc>Created with Sketch.</desc>
    <defs></defs>
    <g id="Page-1" stroke="none" stroke-width="1" fill="none" fill-rule="evenodd">
        <g id="Group-3">
            <rect id="Rectangle-2" fill="#FFFFFF" x="0" y="0" width="136" height="136"></rect>
            <path d="M28.9433457,79.0039139 C28.5184511,79.0849868 28.2136155,79.4601692 28.2212377,79.8926621 L28.2212377,108.332606 C28.2212868,108.823428 28.6191642,109.221305 29.109986,109.221354 L83.0458951,109.221354 L93.0998596,116.886808 L93.0998596,131.912208 C93.0998596,134.083864 94.8516801,135.883802 97.0159065,135.883802 L101.098594,135.883802 C101.419108,135.888334 101.717235,135.719938 101.878815,135.443095 C102.040395,135.166252 102.040395,134.823854 101.878815,134.547011 C101.717235,134.270168 101.419108,134.101772 101.098594,134.106305 L97.0159065,134.106305 C95.8149766,134.106305 94.8773561,133.139214 94.8773561,131.912208 L94.8773561,104.277692 C94.8773561,103.050882 95.815029,102.111368 97.0159065,102.111368 L101.098594,102.111368 C101.419108,102.115901 101.717235,101.947505 101.878815,101.670662 C102.040395,101.393819 102.040395,101.051421 101.878815,100.774578 C101.717235,100.497735 101.419108,100.329339 101.098594,100.333872 L97.0159065,100.333872 C94.8516277,100.333872 93.0998596,102.10616 93.0998596,104.277692 L93.0998596,114.664937 L83.8513231,107.610498 C83.6976382,107.500215 83.5127777,107.441838 83.3236289,107.443858 L68.8259231,107.443858 L57.494383,79.5593815 C57.3572976,79.2205062 57.0267147,79.0001176 56.6611815,79.0039139 L29.109986,79.0039139 C29.0545618,78.9986954 28.9987699,78.9986954 28.9433457,79.0039139 Z M29.9987342,80.7814103 L56.0501671,80.7814103 L66.9095597,107.443858 L29.9987342,107.443858 L29.9987342,80.7814103 Z M32.6649789,114.553844 C26.7719408,114.553844 22,119.3258 22,125.218823 C22,131.111846 26.7719408,135.883802 32.6649789,135.883802 L77.9911394,135.883802 C83.8841775,135.883802 88.6561183,131.111846 88.6561183,125.218823 C88.6561183,119.3258 83.8841775,114.553844 77.9911394,114.553844 L32.6649789,114.553844 Z M32.6649789,116.33134 L77.9911394,116.33134 C82.9301898,116.33134 86.8786219,120.279782 86.8786219,125.218823 C86.8786219,130.157863 82.9301898,134.106305 77.9911394,134.106305 L32.6649789,134.106305 C27.7259285,134.106305 23.7774965,130.157863 23.7774965,125.218823 C23.7774965,120.279782 27.7259285,116.33134 32.6649789,116.33134 Z M36.2199719,119.886333 C33.2854585,119.886333 30.8874824,122.284265 30.8874824,125.218823 C30.8874824,128.15338 33.2854754,130.551312 36.2199719,130.551312 C39.1544844,130.551312 41.5524614,128.15338 41.5524614,125.218823 C41.5524614,122.284354 39.1545057,119.886333 36.2199719,119.886333 Z M55.3280592,119.886333 C52.3935253,119.886333 49.9955697,122.284354 49.9955697,125.218823 C49.9955697,128.15338 52.3935467,130.551312 55.3280592,130.551312 C58.2625557,130.551312 60.6605486,128.15338 60.6605486,125.218823 C60.6605486,122.284265 58.2625726,119.886333 55.3280592,119.886333 Z M74.4361464,119.886333 C71.5016126,119.886333 69.103657,122.284354 69.103657,125.218823 C69.103657,128.15338 71.5016339,130.551312 74.4361464,130.551312 C77.3706429,130.551312 79.7686359,128.15338 79.7686359,125.218823 C79.7686359,122.284265 77.3706598,119.886333 74.4361464,119.886333 Z M36.2199719,121.66383 C38.1938667,121.66383 39.7749649,123.244913 39.7749649,125.218823 C39.7749649,127.192821 38.193888,128.773816 36.2199719,128.773816 C34.2460789,128.773816 32.6649789,127.192821 32.6649789,125.218823 C32.6649789,123.245002 34.2461083,121.66383 36.2199719,121.66383 Z M55.3280592,121.66383 C57.3019228,121.66383 58.8830522,123.245002 58.8830522,125.218823 C58.8830522,127.192821 57.3019521,128.773816 55.3280592,128.773816 C53.3541431,128.773816 51.7730662,127.192821 51.7730662,125.218823 C51.7730662,123.244913 53.3541644,121.66383 55.3280592,121.66383 Z M74.4361464,121.66383 C76.4100101,121.66383 77.9911394,123.245002 77.9911394,125.218823 C77.9911394,127.192821 76.4100394,128.773816 74.4361464,128.773816 C72.4622304,128.773816 70.8811535,127.192821 70.8811535,125.218823 C70.8811535,123.244913 72.4622517,121.66383 74.4361464,121.66383 Z" id="Shape" stroke="#FFFFFF" stroke-width="0.3" fill="#FF6600" fill-rule="nonzero"></path>
        </g>
    </g>
</svg>