<?xml version="1.0" encoding="UTF-8"?>
<svg width="136px" height="138px" viewBox="0 0 136 138" version="1.1" xmlns="http://www.w3.org/2000/svg" xmlns:xlink="http://www.w3.org/1999/xlink">
    <!-- Generator: Sketch 48.2 (47327) - http://www.bohemiancoding.com/sketch -->
    <title>Group 5</title>
    <desc>Created with Sketch.</desc>
    <defs></defs>
    <g id="Page-1" stroke="none" stroke-width="1" fill="none" fill-rule="evenodd">
        <g id="Group-5">
            <g id="Group-4">
                <rect id="Rectangle-2" fill="#FFFFFF" x="0" y="0" width="136" height="136"></rect>
                <path d="M86,74.828427 L86,100 L48,100 C46.895431,100 46,100.895431 46,102 L46,114.181376 C40.879764,115.121889 37,119.607861 37,125 C37,131.075132 41.924868,136 48,136 C54.075132,136 59,131.075132 59,125 C59,119.607861 55.120236,115.121889 50,114.181376 L50,104 L88,104 C89.104569,104 90,103.104569 90,102 L90,74.828427 L95.585786,80.414214 C96.366835,81.195262 97.633165,81.195262 98.414214,80.414214 C99.195262,79.633165 99.195262,78.366835 98.414214,77.585786 L89.414214,68.585786 C88.633165,67.804738 87.366835,67.804738 86.585786,68.585786 L77.585786,77.585786 C76.804738,78.366835 76.804738,79.633165 77.585786,80.414214 C78.366835,81.195262 79.633165,81.195262 80.414214,80.414214 L86,74.828427 Z M48,132 C44.134007,132 41,128.865993 41,125 C41,121.134007 44.134007,118 48,118 C51.865993,118 55,121.134007 55,125 C55,128.865993 51.865993,132 48,132 Z M85.171573,125 L78.585786,118.414214 C77.804738,117.633165 77.804738,116.366835 78.585786,115.585786 C79.366835,114.804738 80.633165,114.804738 81.414214,115.585786 L88,122.171573 L94.585786,115.585786 C95.366835,114.804738 96.633165,114.804738 97.414214,115.585786 C98.195262,116.366835 98.195262,117.633165 97.414214,118.414214 L90.828427,125 L97.414214,131.585786 C98.195262,132.366835 98.195262,133.633165 97.414214,134.414214 C96.633165,135.195262 95.366835,135.195262 94.585786,134.414214 L88,127.828427 L81.414214,134.414214 C80.633165,135.195262 79.366835,135.195262 78.585786,134.414214 C77.804738,133.633165 77.804738,132.366835 78.585786,131.585786 L85.171573,125 Z M45.171573,79 L38.585786,72.414214 C37.804738,71.633165 37.804738,70.366835 38.585786,69.585786 C39.366835,68.804738 40.633165,68.804738 41.414214,69.585786 L48,76.171573 L54.585786,69.585786 C55.366835,68.804738 56.633165,68.804738 57.414214,69.585786 C58.195262,70.366835 58.195262,71.633165 57.414214,72.414214 L50.828427,79 L57.414214,85.585786 C58.195262,86.366835 58.195262,87.633165 57.414214,88.414214 C56.633165,89.195262 55.366835,89.195262 54.585786,88.414214 L48,81.828427 L41.414214,88.414214 C40.633165,89.195262 39.366835,89.195262 38.585786,88.414214 C37.804738,87.633165 37.804738,86.366835 38.585786,85.585786 L45.171573,79 Z" id="Shape" stroke="#FFFFFF" stroke-width="2.5" fill="#FF6600"></path>
            </g>
        </g>
    </g>
</svg>