<?xml version="1.0" encoding="UTF-8"?>
<svg width="98px" height="100px" viewBox="0 0 98 100" version="1.1" xmlns="http://www.w3.org/2000/svg" xmlns:xlink="http://www.w3.org/1999/xlink">
    <!-- Generator: Sketch 48.2 (47327) - http://www.bohemiancoding.com/sketch -->
    <title>Shape</title>
    <desc>Created with Sketch.</desc>
    <defs></defs>
    <g id="Desktop-HD-Copy-3" stroke="none" stroke-width="1" fill="none" fill-rule="evenodd" transform="translate(-1006.000000, -392.000000)">
        <path d="M1072.72827,396.406683 C1067.04849,394.145587 1061.08465,393 1055.00431,393 C1035.17546,393 1017.66748,404.854733 1010.39463,423.206357 C1002.57986,443.060583 1008.59344,465.345913 1024.98091,478.418159 C1022.85377,481.296512 1020.45043,483.844004 1017.94106,485.874937 C1016.96978,486.660893 1016.61373,487.983026 1017.06141,489.149537 C1017.49076,490.267661 1018.56415,491 1019.75535,491 C1019.80509,491 1019.85352,491 1019.90326,490.996077 C1026.27028,490.673063 1032.50639,488.972991 1038.46107,485.944247 C1043.81884,487.932024 1049.40175,488.937682 1055.08023,488.937682 C1074.77556,488.937682 1092.29008,477.063332 1099.71478,458.651552 C1109.30064,434.000507 1097.19101,406.07617 1072.72827,396.406683 Z M1094.34784,456.526462 C1087.82113,472.711148 1072.40626,483.169207 1055.08023,483.169207 C1049.6989,483.169207 1044.40789,482.138701 1039.35643,480.105154 C1038.55793,479.783448 1037.65734,479.83445 1036.90073,480.245083 C1034.0183,481.806533 1031.06517,483.010969 1028.05969,483.850543 C1029.2234,482.430329 1030.32689,480.925111 1031.35316,479.354506 C1032.20139,478.055913 1031.87021,476.317916 1030.60048,475.423417 C1014.6764,464.195095 1008.57511,443.588914 1015.76418,425.322293 C1022.15738,409.191225 1037.55916,398.76586 1055.00562,398.76586 C1060.3516,398.76586 1065.5968,399.774133 1070.59983,401.764525 C1092.12646,410.275348 1102.77262,434.857082 1094.34784,456.526462 Z" id="Shape" stroke="#FF6600" fill="#FF6600" fill-rule="nonzero"></path>
    </g>
</svg>