<?xml version="1.0" encoding="UTF-8"?>
<svg width="92px" height="116px" viewBox="0 0 92 116" version="1.1" xmlns="http://www.w3.org/2000/svg" xmlns:xlink="http://www.w3.org/1999/xlink">
    <!-- Generator: Sketch 48.2 (47327) - http://www.bohemiancoding.com/sketch -->
    <title>Shape</title>
    <desc>Created with Sketch.</desc>
    <defs></defs>
    <g id="Desktop-HD-Copy-3" stroke="none" stroke-width="1" fill="none" fill-rule="evenodd" transform="translate(-746.000000, -583.000000)">
        <path d="M749,586 L749,587.374999 L749,694.625001 L749,696 L750.386555,696 L833.579832,696 L834.966387,696 L834.966387,694.625001 C834.966387,666.007827 834.966387,642.890652 834.966387,614.273478 C824.899168,604.580696 815.0495,594.284481 806.411958,586 C787.73687,586 769.061643,586 750.386555,586 L749,586 Z M751.773109,588.749999 L804.462185,588.749999 L804.462185,614.875041 L804.462185,616.25004 L805.848739,616.25004 L832.193277,616.25004 L832.193277,693.250001 L751.773109,693.250001 L751.773109,588.749999 Z M807.235294,590.683591 L830.243504,613.500041 L807.235294,613.500041 L807.235294,590.683591 Z" id="Shape" stroke="#FF6600" stroke-width="4.5" fill="#FF6600" fill-rule="nonzero"></path>
    </g>
</svg>