<?xml version="1.0" encoding="UTF-8"?>
<svg width="61px" height="61px" viewBox="0 0 61 61" version="1.1" xmlns="http://www.w3.org/2000/svg" xmlns:xlink="http://www.w3.org/1999/xlink">
    <!-- Generator: Sketch 48.2 (47327) - http://www.bohemiancoding.com/sketch -->
    <title>Group 2</title>
    <desc>Created with Sketch.</desc>
    <defs></defs>
    <g id="Desktop-HD" stroke="none" stroke-width="1" fill="none" fill-rule="evenodd" transform="translate(-628.000000, -251.000000)">
        <g id="Group-2" transform="translate(658.500000, 281.500000) scale(-1, 1) translate(-658.500000, -281.500000) translate(628.000000, 251.000000)" fill="#FF6600" fill-rule="nonzero">
            <path d="M1.95979899,21.4617564 L12.3467337,21.4617564 L12.3467337,25.6968839 L7.90452261,25.6968839 C7.54373358,25.6968839 7.25125628,25.9885963 7.25125628,26.3484419 C7.25125628,26.7082875 7.54373358,27 7.90452261,27 L18.160804,27 C18.5215931,27 18.8140704,26.7082875 18.8140704,26.3484419 C18.8140704,25.9885963 18.5215931,25.6968839 18.160804,25.6968839 L13.6532663,25.6968839 L13.6532663,21.4617564 L24.040201,21.4617564 C25.1225681,21.4617564 26,20.5866189 26,19.5070822 L26,5.95467422 C26,4.87513746 25.1225681,4 24.040201,4 L1.95979899,4 C0.877431897,4 0,4.87513746 0,5.95467422 L0,19.5070822 C0,20.5866189 0.877431897,21.4617564 1.95979899,21.4617564 Z M1.30653266,5.95467422 C1.30653266,5.59482863 1.59900996,5.30311615 1.95979899,5.30311615 L24.040201,5.30311615 C24.40099,5.30311615 24.6934673,5.59482863 24.6934673,5.95467422 L24.6934673,19.5070822 C24.6934673,19.8669277 24.40099,20.1586402 24.040201,20.1586402 L1.95979899,20.1586402 C1.59900996,20.1586402 1.30653266,19.8669277 1.30653266,19.5070822 L1.30653266,5.95467422 Z" id="Shape"></path>
            <path d="M37.6703922,59.9999915 L60.3296078,59.9999915 C60.6998545,59.9999915 60.9999988,59.7022166 60.9999988,59.3348926 L60.9999988,58.2707344 C61.0025234,52.6675644 57.0665085,47.8210029 51.5474858,46.6315036 C54.7448376,45.4133659 56.6114443,42.105847 55.9870664,38.7648239 C55.3626886,35.4238007 52.4250001,33 49,33 C45.5749999,33 42.6373114,35.4238007 42.0129336,38.7648239 C41.3885557,42.105847 43.2551624,45.4133659 46.4525142,46.6315036 C40.9334915,47.8210029 36.9974766,52.6675644 37.0000012,58.2707344 L37.0000012,59.4014025 C37.0345545,59.7425326 37.3248204,60.0017096 37.6703922,59.9999915 Z M43.1675984,39.9805146 C43.1675984,37.667051 44.5722838,35.5813859 46.7266522,34.6960617 C48.8810205,33.8107376 51.3608057,34.3001037 53.0096879,35.9359695 C54.65857,37.5718353 55.1518299,40.032045 54.2594614,42.1694066 C53.3670928,44.3067683 51.2648324,45.7003651 48.9329609,45.7003651 C45.7748368,45.700577 43.2043207,43.1800064 43.1675984,40.0470245 L43.1675984,39.9805146 Z M38.3407832,58.2707344 C38.3407832,52.4302831 43.1130771,47.6956618 49,47.6956618 C54.8869229,47.6956618 59.6592168,52.4302831 59.6592168,58.2707344 L59.6592168,58.7363036 L38.3407832,58.7363036 L38.3407832,58.2707344 Z" id="Shape"></path>
            <path d="M42.1277399,0.189731842 C41.8720936,-0.0632439475 41.462952,-0.0632439475 41.2073056,0.189731842 L33.186378,8.28723236 L33.0548874,8.48635122 C32.9817042,8.65563575 32.9817042,8.84805033 33.0548874,9.01733486 L33.186378,9.21645373 L41.2073056,17.3139542 C41.469051,17.5121374 41.8353145,17.4858594 42.066667,17.2522983 C42.2980195,17.0187372 42.324049,16.6489771 42.1277399,16.3847329 L35.2244826,9.41557259 L50.0829222,9.41557259 C52.6246314,9.41557259 54.6850938,11.4957055 54.6850938,14.0616794 L54.6850938,27.3362704 C54.6850938,27.7028382 54.9794456,28 55.3425469,28 C55.7056482,28 56,27.7028382 56,27.3362704 L56,14.0616794 C56,10.7625701 53.3508341,8.08811349 50.0829222,8.08811349 L35.2244826,8.08811349 L42.1277399,1.11895321 C42.3783235,0.860866285 42.3783235,0.447818771 42.1277399,0.189731842 Z" id="Shape"></path>
            <path d="M18.8722601,60.8102682 C19.1279064,61.0632439 19.537048,61.0632439 19.7926944,60.8102682 L27.813622,52.7127676 L27.9451126,52.5136488 C28.0182958,52.3443642 28.0182958,52.1519497 27.9451126,51.9826651 L27.813622,51.7835463 L19.8584397,43.6860458 C19.5966943,43.4878626 19.2304308,43.5141406 18.9990783,43.7477017 C18.7677259,43.9812628 18.7416963,44.3510229 18.9380054,44.6152671 L25.7755174,51.5844274 L10.9170778,51.5844274 C8.37536857,51.5844274 6.31490617,49.5042945 6.31490617,46.9383206 L6.31490617,33.6637296 C6.31490617,33.2971618 6.0205544,33 5.65745308,33 C5.29435177,33 5,33.2971618 5,33.6637296 L5,46.9383206 C5,50.2374299 7.64916595,52.9118865 10.9170778,52.9118865 L25.7755174,52.9118865 L18.8722601,59.8810468 C18.6216765,60.1391337 18.6216765,60.5521812 18.8722601,60.8102682 Z" id="Shape"></path>
        </g>
    </g>
</svg>