<?xml version="1.0" encoding="UTF-8"?>
<svg width="58px" height="66px" viewBox="0 0 58 66" version="1.1" xmlns="http://www.w3.org/2000/svg" xmlns:xlink="http://www.w3.org/1999/xlink">
    <!-- Generator: Sketch 48.2 (47327) - http://www.bohemiancoding.com/sketch -->
    <title>Group</title>
    <desc>Created with Sketch.</desc>
    <defs></defs>
    <g id="Artboard-Copy-3" stroke="none" stroke-width="1" fill="none" fill-rule="evenodd" transform="translate(-101.000000, -265.000000)">
        <g id="Group" transform="translate(103.000000, 267.000000)">
            <g id="noun_689827" fill-rule="nonzero">
                <ellipse id="Oval" fill="#FF6600" cx="30.7241379" cy="30.5373134" rx="3.72413793" ry="3.70149254"></ellipse>
                <path d="M31.2824979,62 C14.0341106,62 0,48.092625 0,31 C0,13.907375 14.0341106,0 31.2824979,0 C39.6388352,0 47.4966076,3.2259375 53.4011791,9.0810625 C54.1656452,9.838625 54.1656452,11.0650625 53.4011791,11.8206875 C52.6367131,12.57825 51.4010544,12.57825 50.6365884,11.8206875 C45.4691107,6.696 38.5947818,3.875 31.2824979,3.875 C16.1886927,3.875 3.91031224,16.0425 3.91031224,31 C3.91031224,45.9575 16.1886927,58.125 31.2824979,58.125 C35.0285771,58.125 38.6553917,57.3906875 42.0651839,55.9414375 C43.0564481,55.51325 44.208035,55.9724375 44.6323039,56.9566875 C45.058528,57.9409375 44.5971111,59.0801875 43.6078021,59.500625 C39.7092208,61.159125 35.5603795,62 31.2824979,62 Z M49.52997,55.6915 C48.9551541,55.6915 48.3842485,55.4415625 47.9990828,54.9610625 C47.3265091,54.1240625 47.4672803,52.9034375 48.3099526,52.238875 C49.1252527,51.595625 49.9073151,50.9039375 50.6365884,50.18125 C51.4010544,49.4236875 52.6367131,49.4236875 53.4011791,50.18125 C54.1656452,50.9388125 54.1656452,52.1633125 53.4011791,52.920875 C52.5682826,53.7481875 51.6728211,54.53675 50.7460771,55.2710625 C50.3863284,55.5539375 49.956194,55.6915 49.52997,55.6915 Z M31.2824979,52.3125 C19.4244761,52.3125 9.7757806,42.7509375 9.7757806,31 C9.7757806,19.2490625 19.4244761,9.6875 31.2824979,9.6875 C37.0267466,9.6875 42.428843,11.904 46.4897022,15.930125 C47.2541683,16.6876875 47.2541683,17.9121875 46.4897022,18.66975 C45.7252362,19.4273125 44.4895775,19.4273125 43.7251115,18.66975 C40.4013461,15.376 35.9826932,13.5625 31.2824979,13.5625 C21.5810133,13.5625 13.6860928,21.386125 13.6860928,31 C13.6860928,40.6158125 21.5810133,48.4375 31.2824979,48.4375 C33.4859589,48.4375 35.6366306,48.038375 37.6719481,47.2536875 C38.6749432,46.86425 39.8108889,47.3583125 40.2038753,48.3541875 C40.5949065,49.352 40.0982969,50.47575 39.0933466,50.86325 C36.6024777,51.82425 33.9747479,52.3125 31.2824979,52.3125 Z M44.9138464,46.829375 C44.4035507,46.829375 43.8952101,46.63175 43.5100443,46.240375 C42.7573092,45.473125 42.7768608,44.2466875 43.5511026,43.50075 L43.7055599,43.349625 C44.4563399,42.5843125 45.697864,42.563 46.4701507,43.310875 C47.2443925,44.0568125 47.2619889,45.28325 46.5092538,46.0505 L46.2746351,46.2810625 C45.8953348,46.64725 45.4045906,46.829375 44.9138464,46.829375 Z M31.2824979,42.625 C24.8128863,42.625 19.5515612,37.4111875 19.5515612,31 C19.5515612,24.5888125 24.8128863,19.375 31.2824979,19.375 C34.4185684,19.375 37.3610783,20.584 39.5762702,22.7791875 C40.3407362,23.53675 40.3407362,24.7631875 39.5762702,25.52075 C38.8118042,26.276375 37.5761455,26.276375 36.8116794,25.52075 C35.3355366,24.056 33.3706047,23.25 31.2824979,23.25 C26.9694235,23.25 23.4618734,26.725875 23.4618734,31 C23.4618734,35.274125 26.9694235,38.75 31.2824979,38.75 C33.3706047,38.75 35.3355366,37.944 36.8116794,36.47925 C37.5722352,35.7216875 38.8118042,35.7216875 39.5762702,36.47925 C40.3407362,37.234875 40.3407362,38.4613125 39.5762702,39.218875 C37.3630335,41.416 34.4185684,42.625 31.2824979,42.625 Z" id="Shape" stroke="#EDEDED" stroke-width="3" fill="#FF5E00"></path>
            </g>
            <path d="M54,8.26666667 L32.666388,29.4949275" id="Line" stroke="#FF6600" stroke-linecap="round"></path>
            <circle id="Oval-10" fill="#FF6600" cx="45.5" cy="45.5" r="1.5"></circle>
        </g>
    </g>
</svg>