<?xml version="1.0" encoding="UTF-8"?>
<svg width="121px" height="122px" viewBox="0 0 121 122" version="1.1" xmlns="http://www.w3.org/2000/svg" xmlns:xlink="http://www.w3.org/1999/xlink">
    <!-- Generator: Sketch 48.2 (47327) - http://www.bohemiancoding.com/sketch -->
    <title>Combined Shape</title>
    <desc>Created with Sketch.</desc>
    <defs></defs>
    <g id="Artboard-Copy-3" stroke="none" stroke-width="1" fill="none" fill-rule="evenodd" transform="translate(-248.000000, -349.000000)">
        <path d="M299.492003,369.953753 C299.165451,369.984354 298.834553,370 298.5,370 C292.70101,370 288,365.29899 288,359.5 C288,353.70101 292.70101,349 298.5,349 C304.29899,349 309,353.70101 309,359.5 C309,364.272308 305.816217,368.301004 301.456802,369.577937 L306.676258,394.133548 C307.438597,394.045341 308.214003,394 309,394 C315.275633,394 320.876172,396.890419 324.542976,401.412616 L349.360569,384.672937 C348.494497,383.146068 348,381.380782 348,379.5 C348,373.70101 352.70101,369 358.5,369 C364.29899,369 369,373.70101 369,379.5 C369,385.29899 364.29899,390 358.5,390 C355.300043,390 352.434419,388.568555 350.508527,386.311066 L325.724474,403.028121 C327.795262,406.17824 329,409.948429 329,414 C329,418.632365 327.425106,422.896894 324.781536,426.287369 L338.062657,437.797674 C339.860761,436.06532 342.305971,435 345,435 C350.522847,435 355,439.477153 355,445 C355,450.522847 350.522847,455 345,455 C339.477153,455 335,450.522847 335,445 C335,442.891078 335.652825,440.934632 336.767414,439.321721 L323.474827,427.801479 C319.832442,431.620436 314.69411,434 309,434 C305.564317,434 302.33097,433.133693 299.506484,431.607601 L283.915702,453.066471 C285.821069,454.967297 287,457.595971 287,460.5 C287,466.29899 282.29899,471 276.5,471 C270.70101,471 266,466.29899 266,460.5 C266,454.70101 270.70101,450 276.5,450 C278.674034,450 280.693748,450.660723 282.369292,451.792318 L297.790994,430.566166 C292.486025,426.969703 289,420.891954 289,414 C289,411.654659 289.403699,409.403607 290.1454,407.312541 L267.57368,396.787176 C265.752949,399.90512 262.371117,402 258.5,402 C252.70101,402 248,397.29899 248,391.5 C248,385.70101 252.70101,381 258.5,381 C264.29899,381 269,385.70101 269,391.5 C269,392.716611 268.793086,393.884895 268.412528,394.971581 L290.908906,405.461814 C293.520547,399.937867 298.587692,395.802028 304.70161,394.463028 L299.492003,369.953753 Z M258.5,400 C263.19442,400 267,396.19442 267,391.5 C267,386.80558 263.19442,383 258.5,383 C253.80558,383 250,386.80558 250,391.5 C250,396.19442 253.80558,400 258.5,400 Z M298.5,368 C303.19442,368 307,364.19442 307,359.5 C307,354.80558 303.19442,351 298.5,351 C293.80558,351 290,354.80558 290,359.5 C290,364.19442 293.80558,368 298.5,368 Z M358.5,388 C363.19442,388 367,384.19442 367,379.5 C367,374.80558 363.19442,371 358.5,371 C353.80558,371 350,374.80558 350,379.5 C350,384.19442 353.80558,388 358.5,388 Z M309,432 C318.941125,432 327,423.941125 327,414 C327,404.058875 318.941125,396 309,396 C299.058875,396 291,404.058875 291,414 C291,423.941125 299.058875,432 309,432 Z M276.5,469 C281.19442,469 285,465.19442 285,460.5 C285,455.80558 281.19442,452 276.5,452 C271.80558,452 268,455.80558 268,460.5 C268,465.19442 271.80558,469 276.5,469 Z M345,453 C349.418278,453 353,449.418278 353,445 C353,440.581722 349.418278,437 345,437 C340.581722,437 337,440.581722 337,445 C337,449.418278 340.581722,453 345,453 Z" id="Combined-Shape" fill="#FF6600"></path>
    </g>
</svg>